<?xml version="1.0" standalone="no"?>
<!DOCTYPE svg PUBLIC "-//W3C//DTD SVG 20010904//EN"
 "http://www.w3.org/TR/2001/REC-SVG-20010904/DTD/svg10.dtd">
<svg version="1.0" xmlns="http://www.w3.org/2000/svg"
 width="500.000000pt" height="500.000000pt" viewBox="0 0 500.000000 500.000000"
 preserveAspectRatio="xMidYMid meet">

<g transform="translate(0.000000,500.000000) scale(0.100000,-0.100000)"
fill="#000000" stroke="none">
<path d="M2320 3779 c-90 -11 -266 -59 -344 -93 -75 -33 -207 -114 -277 -170
-47 -37 -58 -52 -68 -93 -7 -26 -14 -57 -18 -67 -3 -11 29 11 77 53 153 135
308 218 502 269 93 24 120 27 283 27 162 0 190 -3 281 -27 385 -100 693 -381
822 -748 16 -47 36 -117 43 -156 l13 -72 33 27 c18 14 33 33 33 42 0 28 -49
188 -81 264 -108 259 -328 493 -587 624 -78 40 -213 85 -315 106 -98 19 -297
27 -397 14z"/>
<path d="M1568 3618 c-23 -18 -111 -316 -152 -515 -34 -164 -67 -384 -81 -532
-5 -48 -18 -97 -36 -139 -16 -35 -29 -68 -29 -73 0 -5 11 -15 25 -21 25 -11
25 -12 25 -139 0 -140 18 -371 31 -406 5 -14 17 -23 29 -23 20 0 21 3 13 118
-9 126 -9 469 -1 477 8 9 71 -17 117 -48 24 -16 101 -82 170 -145 196 -179
380 -320 402 -306 22 13 2 39 -85 109 -52 41 -147 123 -212 182 -228 210 -301
263 -361 263 -20 0 -23 5 -23 43 0 75 129 316 261 487 115 148 340 360 383
360 8 0 20 10 27 21 9 17 8 25 -4 37 -20 19 -54 6 -129 -50 -162 -120 -324
-302 -446 -499 l-64 -104 6 57 c12 114 58 338 118 580 66 266 68 306 16 266z"/>
<path d="M2926 3379 c-33 -83 -76 -403 -76 -570 0 -69 -2 -77 -27 -101 -16
-15 -55 -43 -87 -62 -94 -56 -168 -44 -182 30 -6 29 -3 32 51 58 97 48 149
151 91 177 -34 16 -70 4 -116 -37 -51 -46 -80 -107 -80 -170 0 -61 15 -92 60
-122 29 -20 43 -23 82 -18 52 5 110 32 156 71 16 14 32 25 34 25 3 0 8 -75 11
-167 6 -169 14 -203 45 -184 8 4 24 44 37 87 13 43 38 111 56 149 l33 70 21
-90 c42 -176 77 -255 115 -255 30 0 32 16 10 60 -47 92 -99 356 -80 406 6 14
33 59 60 100 56 83 62 107 28 102 -30 -4 -96 -103 -184 -273 -73 -142 -72
-140 -78 -134 -16 16 36 581 69 754 22 115 20 135 -9 135 -19 0 -27 -9 -40
-41z m-272 -556 c-23 -29 -84 -69 -84 -54 0 20 92 107 97 92 3 -7 -3 -24 -13
-38z"/>
<path d="M1306 2978 c-54 -149 -68 -225 -72 -388 -5 -148 -4 -154 12 -126 10
19 26 109 45 255 15 124 33 248 38 276 5 27 8 51 6 53 -1 2 -14 -30 -29 -70z"/>
<path d="M3266 2868 c-35 -62 -56 -142 -56 -219 0 -81 6 -98 37 -110 47 -18
90 24 186 176 l32 50 6 -60 c8 -76 21 -107 55 -134 35 -27 59 -27 120 4 61 31
164 127 164 155 0 34 -28 23 -94 -39 -107 -100 -154 -112 -182 -45 -8 18 -14
66 -14 106 0 133 -29 131 -122 -6 -77 -113 -107 -148 -120 -140 -16 10 2 105
38 197 19 48 32 92 29 97 -3 6 -17 10 -30 10 -18 0 -31 -11 -49 -42z"/>
<path d="M1987 2860 c-36 -29 -103 -168 -127 -266 -18 -70 -19 -86 -8 -119 28
-84 66 -69 163 63 33 44 63 81 66 82 3 0 12 -26 19 -57 15 -72 52 -147 82
-167 12 -9 38 -16 57 -16 45 0 106 62 152 156 30 61 34 78 34 151 0 52 -5 87
-12 94 -20 20 -28 2 -33 -85 -7 -94 -39 -172 -95 -232 -61 -65 -101 -34 -136
106 -33 138 -55 141 -147 22 -33 -43 -67 -84 -76 -91 -14 -12 -16 -10 -16 13
0 44 58 208 95 270 35 59 41 86 19 93 -6 2 -23 -6 -37 -17z"/>
<path d="M3683 2522 c-28 -13 -33 -22 -38 -61 -35 -289 -128 -513 -286 -685
l-48 -53 28 -27 29 -28 51 62 c109 131 189 273 241 428 36 108 62 254 58 325
l-3 54 -32 -15z"/>
<path d="M1455 1896 c6 -76 8 -82 55 -141 73 -92 76 -94 108 -62 l26 27 -40
42 c-48 51 -91 107 -128 168 l-28 45 7 -79z"/>
<path d="M1685 1653 c-4 -27 -14 -56 -23 -66 -11 -12 -12 -21 -5 -28 8 -8 14
-6 22 9 6 11 33 28 61 38 27 10 50 22 50 27 0 9 -8 7 -67 -9 -20 -6 -21 -3
-16 35 3 25 2 41 -5 41 -5 0 -13 -21 -17 -47z"/>
<path d="M3225 1689 c-4 -6 3 -21 15 -34 l21 -23 -31 -22 -31 -22 -23 21 c-40
38 -36 10 7 -45 23 -30 45 -54 49 -54 13 0 9 22 -8 41 -14 15 -13 19 12 38 33
26 36 26 59 1 10 -11 22 -17 26 -14 8 4 -77 124 -87 124 -1 0 -6 -5 -9 -11z"/>
<path d="M1927 1469 c-31 -28 -55 -55 -52 -60 3 -5 14 -4 24 3 25 15 81 -7 81
-33 0 -10 4 -20 9 -23 13 -9 19 136 6 151 -7 9 -24 0 -68 -38z m50 -46 c-3 -2
-15 1 -28 7 l-22 12 24 19 c24 18 24 18 27 -7 2 -14 1 -28 -1 -31z"/>
<path d="M2917 1493 c-4 -3 -7 -40 -7 -80 0 -55 3 -74 13 -71 6 3 13 13 15 24
3 24 61 49 76 34 6 -6 17 -10 25 -10 9 0 -7 23 -39 55 -52 53 -69 63 -83 48z
m49 -44 c16 -17 16 -22 4 -29 -27 -17 -40 -11 -40 20 0 35 10 38 36 9z"/>
<path d="M2213 1360 c-7 -56 -6 -70 4 -70 8 0 13 12 13 33 0 56 16 63 30 13 7
-25 16 -46 21 -46 5 0 21 18 35 40 15 22 28 39 29 38 2 -2 0 -24 -4 -50 -6
-35 -5 -48 4 -48 11 0 25 69 25 123 0 29 -24 18 -54 -26 l-29 -42 -17 50 c-25
76 -45 71 -57 -15z"/>
<path d="M2603 1410 c-47 -19 -56 -78 -18 -115 30 -30 64 -32 99 -4 36 28 36
80 0 108 -29 23 -46 25 -81 11z m65 -26 c12 -8 22 -25 22 -36 0 -27 -28 -58
-52 -58 -22 0 -58 34 -58 55 0 18 35 55 53 55 7 0 23 -7 35 -16z"/>
</g>
</svg>
