<svg width="20" height="21" viewBox="0 0 20 21" fill="none" xmlns="http://www.w3.org/2000/svg">
<path d="M5.28552 1.31006C6.06445 1.56445 6.80546 1.91611 7.48964 2.35606C8.45591 2.11797 9.44947 1.99836 10.4468 2.00006C11.4768 2.00006 12.4704 2.12406 13.4019 2.35506C14.0858 1.91554 14.8264 1.56422 15.605 1.31006C16.3279 1.07306 17.3579 0.689062 17.9699 1.34206C18.3848 1.78606 18.4885 2.53006 18.5621 3.09806C18.6451 3.73206 18.6648 4.55806 18.447 5.37806C19.2799 6.41506 19.7819 7.65206 19.7819 9.00006C19.7819 11.0421 18.6347 12.8151 16.9368 14.0431C16.1196 14.6266 15.2133 15.0841 14.2503 15.3991C14.4723 15.8891 14.5957 16.4311 14.5957 17.0001V20.0001C14.5957 20.2653 14.4865 20.5196 14.2919 20.7072C14.0974 20.8947 13.8336 21.0001 13.5585 21.0001H7.33509C7.06 21.0001 6.79618 20.8947 6.60166 20.7072C6.40714 20.5196 6.29786 20.2653 6.29786 20.0001V19.0091C5.3073 19.1261 4.47648 19.0221 3.77012 18.7331C3.03161 18.4311 2.51714 17.9631 2.13025 17.5151C1.76307 17.0911 1.3627 16.1351 0.783925 15.9491C0.65466 15.9076 0.535139 15.8419 0.432186 15.7559C0.329232 15.6699 0.244863 15.5651 0.183895 15.4477C0.0607645 15.2104 0.0404267 14.9358 0.127356 14.6841C0.214285 14.4324 0.401359 14.2243 0.647426 14.1056C0.893493 13.9869 1.17839 13.9673 1.43946 14.0511C2.13025 14.2731 2.58041 14.7531 2.88847 15.1391C3.38634 15.7591 3.79087 16.5691 4.57916 16.8921C4.90382 17.0251 5.37991 17.1121 6.12464 17.0141L6.29786 16.9801C6.29984 16.4359 6.41739 15.8978 6.64326 15.3991C5.68028 15.0841 4.77397 14.6266 3.95682 14.0431C2.25887 12.8151 1.11169 11.0431 1.11169 9.00006C1.11169 7.65406 1.61267 6.41806 2.4435 5.38206C2.22568 4.56206 2.24435 3.73406 2.32733 3.09906L2.33252 3.06106C2.40823 2.47906 2.4964 1.79406 2.91959 1.34206C3.53156 0.689062 4.56257 1.07406 5.28448 1.31106L5.28552 1.31006Z" fill="#E8E8E8"/>
</svg>
