<svg width="57" height="103" viewBox="0 0 57 103" fill="none" xmlns="http://www.w3.org/2000/svg">
<g clip-path="url(#clip0_766_95)">
<path d="M19.9154 55.0712C19.9154 55.0712 17.0981 56.6265 21.9226 57.1514C27.7684 57.7843 30.7553 57.6933 37.1955 56.5387C37.1955 56.5387 38.8921 57.5452 41.2577 58.4173C26.8157 64.2852 8.5732 58.0771 19.9154 55.0712ZM18.1495 47.4121C18.1495 47.4121 14.9893 49.6312 19.8174 50.1045C26.0624 50.716 30.9925 50.766 39.5279 49.208C39.5279 49.208 40.7058 50.3428 42.5607 50.963C25.1028 55.8063 5.65859 51.344 18.1495 47.4121ZM33.0255 34.4181C36.5856 38.305 32.0919 41.8 32.0919 41.8C32.0919 41.8 41.1265 37.3774 36.9781 31.8361C33.1022 26.671 30.1306 24.1052 46.2176 15.2569C46.2181 15.2566 20.9655 21.2373 33.0255 34.4181ZM52.1254 60.7372C52.1254 60.7372 54.2109 62.3682 49.8283 63.6288C41.4943 66.0232 15.1359 66.7452 7.8148 63.7248C5.18497 62.6385 10.1191 61.1326 11.6716 60.8148C13.2902 60.4826 14.2144 60.5429 14.2144 60.5429C11.2875 58.5882 -4.70354 64.3826 6.09266 66.0444C35.5343 70.5704 59.7611 64.0052 52.1254 60.7372ZM21.2711 39.4754C21.2711 39.4754 7.86529 42.4962 16.524 43.5941C20.1811 44.0584 27.4672 43.9516 34.2589 43.4112C39.8082 42.9695 45.377 42.0248 45.377 42.0248C45.377 42.0248 43.4216 42.8202 42.0061 43.7365C28.3899 47.1331 2.0906 45.5513 9.66283 42.0786C16.0638 39.1416 21.2711 39.4754 21.2711 39.4754ZM45.3213 52.2246C59.1614 45.405 52.7621 38.8509 48.2948 39.7336C47.2027 39.9497 46.7126 40.1371 46.7126 40.1371C46.7126 40.1371 47.1195 39.5323 47.8944 39.2722C56.7315 36.327 63.526 47.9619 45.0444 52.5697C45.0444 52.5697 45.257 52.3869 45.3213 52.2246ZM36.9782 0.96582C36.9782 0.96582 44.6419 8.23842 29.7078 19.4184C17.7319 28.3901 26.9771 33.5035 29.7037 39.3488C22.7123 33.3667 17.5845 28.0999 21.024 23.1985C26.0747 16.0051 40.0699 12.5165 36.9782 0.96582ZM22.6319 70.7096C35.9142 71.5151 56.3159 70.2611 56.7988 64.2999C56.7988 64.2999 55.8704 66.5599 45.8209 68.3532C34.4827 70.3778 20.4959 70.1419 12.2036 68.8433C12.2035 68.8433 13.9024 70.177 22.6319 70.7096ZM20.4553 93.4877C19.2029 94.5175 17.8782 95.0965 16.6894 95.0965C14.9959 95.0965 14.0772 94.1314 14.0772 92.5869C14.0772 90.9147 15.0607 89.6908 18.9991 89.6908H20.4552L20.4553 93.4877ZM23.9129 97.1871V85.7351C23.9129 82.8074 22.1527 80.8762 17.911 80.8762C15.4358 80.8762 13.2658 81.4566 11.5016 82.1957L12.0094 84.224C13.3986 83.7403 15.1957 83.2906 16.9597 83.2906C19.4037 83.2906 20.4555 84.224 20.4555 86.1545V87.6023H19.2341C13.2971 87.6023 10.6187 89.7861 10.6187 93.0712C10.6187 95.9014 12.3842 97.5103 15.7072 97.5103C17.8428 97.5103 19.4391 96.674 20.9291 95.4498L21.2003 97.1874L23.9129 97.1871ZM35.4515 97.1871H31.1398L25.9496 81.1684H29.7154L32.937 91.0116L33.6535 93.9687C35.2797 89.6911 36.4329 85.3481 37.0094 81.1681H40.6719C39.6924 86.4429 37.9255 92.2332 35.4515 97.1871ZM51.9966 93.4877C50.74 94.5175 49.4151 95.0965 48.2295 95.0965C46.5357 95.0965 45.6169 94.1314 45.6169 92.5869C45.6169 90.9147 46.6025 89.6908 50.5372 89.6908H51.9966V93.4877ZM55.4557 97.1871V85.7351C55.4557 82.8074 53.6902 80.8762 49.4523 80.8762C46.9738 80.8762 44.8043 81.4566 43.0401 82.1957L43.5487 84.224C44.9386 83.7403 46.7378 83.2906 48.5017 83.2906C50.9432 83.2906 51.9966 84.224 51.9966 86.1545V87.6023H50.7752C44.8369 87.6023 42.1593 89.7861 42.1593 93.0712C42.1593 95.9014 43.9227 97.5103 47.2458 97.5103C49.3828 97.5103 50.9758 96.674 52.4702 95.4498L52.7434 97.1874L55.4557 97.1871ZM6.82665 99.9093C5.84154 101.275 4.24832 102.356 2.50599 102.966L0.798828 101.059C2.12628 100.412 3.26338 99.3699 3.79238 98.3998C4.24849 97.5348 4.43851 96.4227 4.43851 93.7608V75.4705H8.11321V93.5089C8.11304 97.0688 7.81345 98.5077 6.82665 99.9093Z" fill="#4F4F4F"/>
</g>
<defs>
<clipPath id="clip0_766_95">
<rect width="56" height="102" fill="white" transform="translate(0.798828 0.96582)"/>
</clipPath>
</defs>
</svg>
