<svg width="80" height="80" viewBox="0 0 80 80" fill="none" xmlns="http://www.w3.org/2000/svg">
<path d="M57.5361 34.8578C54.7001 35.0828 52.3222 36.1028 50.5522 37.8588C48.7292 39.6668 47.8591 41.8718 47.8591 44.6708C47.8591 48.8568 49.5771 51.7828 53.4101 54.1008C54.3851 54.6858 55.7131 55.3238 58.0091 56.3138C61.1371 57.6568 62.3001 58.2938 63.0431 59.0898C63.9581 60.0728 64.2132 61.6408 63.6362 62.8408C63.5231 63.0738 63.2312 63.4638 62.9682 63.7258C62.0832 64.6188 60.6872 65.0908 58.9552 65.0908C56.0292 65.0908 53.8461 63.8908 52.0911 61.2948C51.8511 60.9498 51.6331 60.6648 51.6031 60.6648C51.5351 60.6648 45.8271 63.9578 45.7071 64.0708C45.6321 64.1388 45.6921 64.2958 45.9851 64.7758C48.2661 68.6168 51.8291 70.8668 56.6451 71.5128C57.9051 71.6858 60.2682 71.6778 61.4762 71.5128C64.5072 71.0848 66.7801 70.0798 68.5431 68.3698C70.4181 66.5618 71.3412 64.2208 71.3412 61.2878C71.3412 59.4128 71.0331 57.9498 70.3361 56.5018C69.8561 55.5118 69.3762 54.8438 68.5512 54.0038C66.9682 52.3988 64.9201 51.1828 60.8321 49.4278C57.7411 48.0998 56.7061 47.5298 56.0231 46.8018C55.3701 46.1038 55.0931 45.2868 55.1531 44.2658C55.2061 43.4558 55.4311 42.9078 55.9261 42.3758C56.6391 41.6028 57.4642 41.2808 58.7392 41.2878C60.1872 41.2878 61.1251 41.6628 62.0771 42.6228C62.4151 42.9528 62.8502 43.4858 63.0522 43.8078C63.2852 44.1758 63.4572 44.3778 63.5172 44.3558C63.7122 44.2728 69.1661 40.7478 69.1661 40.6948C69.1661 40.6648 68.8882 40.2298 68.5512 39.7198C67.8312 38.6398 66.5331 37.2888 65.6401 36.6968C63.9901 35.6018 62.2271 35.0388 59.9011 34.8668C58.7591 34.7758 58.6091 34.7758 57.5361 34.8578Z" fill="#4F4F4F"/>
<path d="M34.1834 48.4889L34.1604 61.7519L33.9954 62.3749C33.7774 63.1929 33.5224 63.6799 33.0724 64.1299C32.4424 64.7599 31.6324 65.0229 30.2814 65.0299C28.3534 65.0379 27.1984 64.2199 25.8554 61.9239C25.6374 61.5639 25.4424 61.2709 25.4204 61.2789C25.3904 61.2939 24.0324 62.1119 22.4044 63.0939L19.4414 64.8939L19.6664 65.3439C21.0094 68.0219 23.3344 70.0479 26.1334 70.9779C29.0894 71.9609 32.8854 71.8709 35.6684 70.7529C39.0064 69.4029 40.9644 66.6119 41.4824 62.4629C41.5274 62.0429 41.5574 57.3539 41.5574 48.5319V35.2339H37.8814H34.2134L34.1834 48.4889Z" fill="#4F4F4F"/>
<path d="M71.1413 79.7398H8.85728C4.10528 79.7398 0.238281 75.8738 0.238281 71.1208V8.83677C0.238281 4.08477 4.10528 0.217773 8.85728 0.217773H71.1413C75.8943 0.217773 79.7603 4.08477 79.7603 8.83677V71.1208C79.7603 75.8738 75.8943 79.7398 71.1413 79.7398ZM8.85728 4.21777C6.31028 4.21777 4.23828 6.28977 4.23828 8.83677V71.1208C4.23828 73.6678 6.31028 75.7398 8.85728 75.7398H71.1413C73.6883 75.7398 75.7603 73.6678 75.7603 71.1208V8.83677C75.7603 6.28977 73.6883 4.21777 71.1413 4.21777H8.85728Z" fill="#4F4F4F"/>
</svg>
