<svg width="200" height="42" viewBox="0 0 200 42" fill="none" xmlns="http://www.w3.org/2000/svg">
<g clip-path="url(#clip0_766_105)">
<path d="M102.851 13.0658C101.551 12.0658 101.051 16.9658 98.4506 16.9658C95.4506 16.9658 94.4506 3.96584 92.1506 3.96584C91.4506 3.96584 91.3506 3.56584 84.2506 25.2658C81.3506 34.2658 88.6506 41.0658 96.0506 41.0658C100.651 41.0658 108.351 38.0658 108.351 28.4658C108.351 21.3658 104.851 14.5658 102.851 13.0658ZM95.9506 36.1658C92.2506 36.1658 89.2506 33.0658 89.2506 29.1658C89.2506 25.2658 92.2506 22.1658 95.9506 22.1658C99.6506 22.1658 102.651 25.2658 102.651 29.1658C102.651 32.9658 99.6506 36.1658 95.9506 36.1658Z" fill="#4F4F4F"/>
<path d="M99.9504 0.865723C99.4504 0.865723 98.1504 3.36572 98.1504 4.46572C98.1504 5.96572 99.1504 6.46572 99.9504 6.46572C100.75 6.46572 101.75 5.96572 101.75 4.46572C101.65 3.36572 100.35 0.865723 99.9504 0.865723V0.865723Z" fill="#4F4F4F"/>
<path d="M0.150391 40.3657V15.7657H11.6504C16.9504 15.7657 19.9504 19.3657 19.9504 23.6657C19.9504 27.9657 16.9504 31.5657 11.6504 31.5657H5.35039V40.3657H0.150391ZM14.5504 23.6657C14.5504 21.5657 12.9504 20.3657 10.8504 20.3657H5.35039V26.9657H10.8504C12.9504 26.9657 14.5504 25.6657 14.5504 23.6657ZM35.3504 40.3657V30.2657L25.9504 15.7657H31.9504L38.0504 25.5657L44.1504 15.7657H50.0504L40.6504 30.2657V40.3657H35.3504ZM63.4504 40.3657V20.3657H56.2504V15.7657H75.8504V20.3657H68.6504V40.3657H63.4504ZM131.55 40.3657L126.75 31.6657H122.95V40.3657H117.75V15.7657H129.15C134.25 15.7657 137.45 19.1657 137.45 23.6657C137.45 27.9657 134.65 30.3657 132.05 30.9657L137.65 40.3657H131.55ZM132.05 23.6657C132.05 21.6657 130.45 20.3657 128.35 20.3657H122.85V26.9657H128.35C130.45 26.9657 132.05 25.7657 132.05 23.6657ZM145.75 28.0657C145.75 20.4657 151.45 15.3657 158.85 15.3657C164.25 15.3657 167.35 18.2657 169.15 21.3657L164.65 23.5657C163.65 21.5657 161.45 19.9657 158.85 19.9657C154.35 19.9657 151.15 23.3657 151.15 28.0657C151.15 32.6657 154.35 36.1657 158.85 36.1657C161.35 36.1657 163.55 34.5657 164.65 32.5657L169.15 34.7657C167.45 37.8657 164.25 40.7657 158.85 40.7657C151.45 40.7657 145.75 35.5657 145.75 28.0657ZM194.65 40.3657V29.9657H183.05V40.3657H177.85V15.7657H183.05V25.4657H194.65V15.7657H199.95V40.3657H194.65Z" fill="#4F4F4F"/>
</g>
<defs>
<clipPath id="clip0_766_105">
<rect width="199.7" height="40.2" fill="white" transform="translate(0.150391 0.865723)"/>
</clipPath>
</defs>
</svg>
