<svg width="43" height="44" viewBox="0 0 43 44" fill="none" xmlns="http://www.w3.org/2000/svg">
<path fill-rule="evenodd" clip-rule="evenodd" d="M27.4448 24.1915C27.4448 24.1915 29.7693 24.8902 31.1205 25.5707C31.5893 25.8065 32.4002 26.2781 32.985 26.8969C33.5581 27.5033 33.8374 28.1168 33.8374 28.1168L43.0001 43.5001L28.191 43.5068L21.2658 30.5619C21.2658 30.5619 19.8479 28.1356 18.9752 27.432C18.2474 26.8449 17.9371 26.6366 17.2171 26.6366H13.6989L13.7018 43.502L0.597656 43.5068V0.424805H26.9113C26.9113 0.424805 38.8972 0.639913 38.8972 11.9953C38.8972 23.3508 27.4439 24.1958 27.4439 24.1958L27.4448 24.1915ZM21.7452 9.76536L13.812 9.76054L13.8081 17.0862L21.7452 17.0833C21.7452 17.0833 25.4209 17.0718 25.4209 13.3567C25.4209 9.56709 21.7452 9.76536 21.7452 9.76536Z" fill="#4F4F4F"/>
</svg>
