<svg width="304" height="60" viewBox="0 0 304 60" fill="none" xmlns="http://www.w3.org/2000/svg">
<path d="M27.2654 0.612305L0.029604 15.142L0 29.2166L15.4803 20.8694V52.9132L15.8517 53.1194L27.2627 59.3169L27.2654 0.612305ZM28.0728 0.612305V59.3194L29.2031 58.6984L39.8606 52.9157V37.9158L47.6169 42.0895L47.555 29.6516L39.8579 25.5283V20.8669L55.3381 29.2141L55.3085 15.142L28.0728 0.612305ZM25.761 3.03099V56.8731L16.982 52.1036V18.4306L1.5125 26.7778L1.53672 15.9642L25.761 3.03099ZM29.5772 3.03099L53.8041 15.9616L53.8256 26.7803L38.3562 18.4331V26.3429L46.0532 30.4662L46.099 39.6456L38.3562 35.477V52.1036L29.5772 56.8731V3.03099Z" fill="#4F4F4F"/>
<path d="M84.1138 19.2176H74.3687V46.4416H68.7385V19.2176H59.0176V14.7549H84.1138V19.2176Z" fill="#4F4F4F"/>
<path d="M104.266 36.5201H87.7548C87.8194 38.6119 88.5056 40.2261 89.8136 41.36C91.1377 42.4939 92.9516 43.0621 95.2527 43.0621C97.839 43.0621 100.213 42.3405 102.374 40.8949V45.0282C100.167 46.3256 97.2496 46.9717 93.6218 46.9717C90.0585 46.9717 87.2596 45.9484 85.225 43.9019C83.2065 41.8402 82.1973 38.9438 82.1973 35.2177C82.1973 31.6978 83.3088 28.8316 85.5345 26.6191C87.7709 24.3965 90.5456 23.2827 93.8586 23.2827C97.1689 23.2827 99.731 24.2783 101.545 26.2671C103.359 28.2558 104.266 31.019 104.266 34.554V36.5201ZM98.9666 32.8996C98.9505 31.0567 98.4876 29.6286 97.5726 28.6129C96.6575 27.582 95.3953 27.0641 93.7859 27.0641C92.2115 27.0641 90.8686 27.6022 89.7651 28.6782C88.6779 29.7543 88.0077 31.1598 87.7548 32.8996H98.9666Z" fill="#4F4F4F"/>
<path d="M131.067 46.4412H125.576V33.6941C125.576 29.4627 123.978 27.3507 120.778 27.3507C119.107 27.3507 117.726 27.9391 116.639 29.1182C115.549 30.2823 115.005 31.7556 115.005 33.5382V46.4412H109.496V23.8132H115.008V27.572H115.102C116.916 24.7133 119.535 23.2827 122.955 23.2827C125.59 23.2827 127.6 24.0873 128.989 25.6913C130.375 27.2828 131.069 29.5884 131.069 32.608L131.067 46.4412Z" fill="#4F4F4F"/>
<path d="M136.246 45.7347V40.9829C138.297 42.4411 140.558 43.1702 143.034 43.1702C146.344 43.1702 148.002 42.2576 148.002 40.4297C148.018 39.9636 147.868 39.5057 147.576 39.1274C147.264 38.7351 146.87 38.4052 146.419 38.1569C145.882 37.8476 145.31 37.5946 144.713 37.4026C143.987 37.1557 143.262 36.906 142.538 36.6534C141.614 36.3152 140.714 35.9239 139.842 35.4817C139.11 35.1098 138.44 34.6406 137.853 34.0888C137.34 33.5686 136.938 32.9608 136.671 32.2987C136.402 31.6375 136.268 30.8656 136.268 29.9806C136.268 28.8894 136.545 27.9315 137.097 27.1068C137.648 26.2671 138.388 25.5681 139.32 25.0075C140.291 24.4159 141.363 23.9824 142.49 23.7252C143.674 23.4311 144.896 23.2827 146.155 23.2827C148.395 23.2827 150.4 23.5995 152.165 24.2331V28.721C150.461 27.6298 148.505 27.0867 146.298 27.0867C145.661 27.0797 145.026 27.1456 144.406 27.2828C143.854 27.4161 143.383 27.5996 142.988 27.836C142.613 28.0529 142.297 28.3481 142.065 28.6984C141.845 29.0212 141.73 29.3968 141.734 29.7795C141.719 30.2133 141.833 30.6425 142.065 31.019C142.285 31.3559 142.608 31.6601 143.034 31.9241C143.475 32.1755 143.997 32.4093 144.594 32.6306C145.211 32.8368 145.913 33.0656 146.702 33.317C147.741 33.7142 148.672 34.1215 149.493 34.5314C150.327 34.9437 151.037 35.4164 151.619 35.9469C152.203 36.4623 152.652 37.0657 152.97 37.7571C153.285 38.4359 153.441 39.2455 153.441 40.1884C153.441 41.3374 153.158 42.3405 152.59 43.1929C152.025 44.0477 151.266 44.7567 150.319 45.3149C149.307 45.8994 148.196 46.3178 147.033 46.5519C145.755 46.837 144.444 46.9779 143.13 46.9717C140.479 46.9717 138.187 46.5594 136.246 45.7347Z" fill="#4F4F4F"/>
<path d="M169.385 46.9717C165.65 46.9717 162.66 45.9183 160.423 43.8139C158.197 41.6919 157.086 38.886 157.086 35.3912C157.086 31.5947 158.243 28.6254 160.563 26.4883C162.896 24.3513 166.034 23.2827 169.977 23.2827C173.761 23.2827 176.711 24.3236 178.823 26.4004C180.936 28.4771 181.994 31.3559 181.994 35.0392C181.994 38.6497 180.85 41.5435 178.562 43.7234C176.294 45.8906 173.234 46.9717 169.385 46.9717ZM169.646 27.3708C167.501 27.3708 165.806 28.0723 164.56 29.4702C163.314 30.8706 162.692 32.8016 162.692 35.2605C162.692 37.6339 163.322 39.5045 164.584 40.8747C165.846 42.2299 167.534 42.9062 169.646 42.9062C171.807 42.9062 173.462 42.2374 174.614 40.8949C175.78 39.5548 176.364 37.6465 176.364 35.1725C176.364 32.6834 175.78 30.76 174.614 29.4049C173.462 28.0497 171.807 27.3708 169.646 27.3708Z" fill="#4F4F4F"/>
<path d="M201.625 28.6984C200.963 28.2106 200.011 27.9693 198.762 27.9693C197.139 27.9693 195.783 28.6531 194.695 30.0234C193.605 31.3936 193.062 33.2567 193.062 35.615V46.4413H187.574V23.8133H193.064V28.4771H193.156C193.694 26.8856 194.512 25.6486 195.616 24.7636C196.735 23.8661 197.984 23.416 199.354 23.416C200.35 23.416 201.103 23.5568 201.625 23.8359V28.6984Z" fill="#4F4F4F"/>
<path d="M224.427 19.2176H211.751V28.7415H223.434V33.1841H211.749V46.4416H206.121V14.7549H224.427V19.2176Z" fill="#4F4F4F"/>
<path d="M235.356 46.4414H229.844V12.9419H235.356V46.4414Z" fill="#4F4F4F"/>
<path d="M253.237 46.9717C249.501 46.9717 246.511 45.9183 244.275 43.8139C242.049 41.6919 240.938 38.886 240.938 35.3912C240.938 31.5947 242.095 28.6254 244.415 26.4883C246.748 24.3513 249.886 23.2827 253.829 23.2827C257.613 23.2827 260.562 24.3236 262.675 26.4004C264.79 28.4771 265.845 31.3559 265.845 35.0392C265.845 38.6497 264.702 41.5435 262.417 43.7234C260.145 45.8906 257.088 46.9717 253.239 46.9717H253.237ZM253.498 27.3708C251.353 27.3708 249.657 28.0723 248.411 29.4702C247.168 30.8706 246.543 32.8016 246.543 35.2605C246.543 37.6339 247.176 39.5045 248.435 40.8747C249.7 42.2299 251.385 42.9062 253.498 42.9062C255.659 42.9062 257.314 42.2374 258.466 40.8949C259.631 39.5548 260.215 37.6465 260.215 35.1725C260.215 32.6834 259.631 30.76 258.466 29.4049C257.314 28.0497 255.659 27.3708 253.498 27.3708Z" fill="#4F4F4F"/>
<path d="M304 23.8135L296.858 46.4415H291.109L286.709 31.1047C286.525 30.4551 286.414 29.7895 286.378 29.1185H286.284C286.217 29.7787 286.075 30.4303 285.858 31.062L281.079 46.4415H275.449L268.33 23.8135H274.009L278.406 40.1232C278.549 40.6085 278.643 41.2546 278.689 42.0667H278.856C278.904 41.4482 279.028 40.7845 279.232 40.0805L284.131 23.8135H289.287L293.639 40.1886C293.782 40.704 293.884 41.3527 293.946 42.1346H294.113C294.145 41.589 294.263 40.9404 294.468 40.1886L298.774 23.8135H304Z" fill="#4F4F4F"/>
</svg>
