<svg width="160" height="88" viewBox="0 0 160 88" fill="none" xmlns="http://www.w3.org/2000/svg">
<g clip-path="url(#clip0_766_128)">
<path d="M0 79.9946H5.27109V58.2168L13.4312 77.2088C14.3937 79.4983 15.7125 80.3209 18.2969 80.3209C20.8813 80.3209 22.1484 79.5073 23.1125 77.2088L31.2734 58.2168V80.0028H36.5453V58.2528C36.5453 56.131 35.7328 55.1048 34.0609 54.5749C30.057 53.2667 27.3703 54.3983 26.1547 57.2275L18.1469 75.9709L10.3906 57.2193C9.225 54.3902 6.48828 53.2585 2.48438 54.5668C0.810938 55.0974 0 56.1236 0 58.2446V79.9946ZM40.9266 62.2627H46.1961V74.2661C46.1469 74.9186 46.3961 76.4492 49.2836 76.4958C50.757 76.5204 60.6539 76.4958 60.7461 76.4958V62.203H66.0273C66.0508 62.203 66.0219 81.6913 66.0227 81.7747C66.0516 86.581 60.3242 87.6251 57.6852 87.7061H41.0414V83.9939L57.7148 83.993C61.107 83.6169 60.707 81.8532 60.707 81.2588V79.8115H49.5039C44.2914 79.7624 40.9727 77.3806 40.9312 74.6414C40.9273 74.3961 41.0438 62.3804 40.9281 62.2619L40.9266 62.2627Z" fill="#4F4F4F"/>
<path d="M70.0898 79.9946H85.2445C87.018 79.9946 88.7422 79.6063 90.1117 78.9333C92.393 77.8376 93.5078 76.3519 93.5078 74.4067V70.3756C93.5078 68.7836 92.2406 67.2987 89.7578 66.3085C88.4398 65.777 86.818 65.4949 85.2469 65.4949H78.8602C76.732 65.4949 75.718 64.8228 75.4648 63.3379C75.4141 63.1613 75.4141 63.0108 75.4141 62.8424V60.3322C75.4141 60.1907 75.4141 60.0484 75.4648 59.8718C75.718 58.7402 76.2758 58.4213 78.1508 58.2365C78.3031 58.2365 78.5055 58.2005 78.6586 58.2005H93.7117V54.5234H78.9117C76.7828 54.5234 75.668 54.6649 74.6539 54.983C71.5086 56.0091 70.1398 57.6445 70.1398 60.4736V63.692C70.1398 66.1679 72.8273 68.2897 77.3367 68.7844C77.8445 68.8196 78.3508 68.8547 78.857 68.8547H84.3312C84.5344 68.8547 84.7375 68.8547 84.8891 68.8907C86.5609 69.0322 87.2719 69.3502 87.7781 69.9864C88.0906 70.3134 88.1844 70.6242 88.1844 70.9676V74.1859C88.1844 74.5751 87.9312 75.0706 87.4242 75.4942C86.968 75.9194 86.2078 76.2015 85.1937 76.2726C84.9906 76.2726 84.8391 76.3078 84.6367 76.3078H70.0898V79.9857V79.9946ZM126.39 73.5939C126.39 77.3781 129.076 79.5 134.499 79.9243C135.005 79.9653 135.512 79.9888 136.02 79.9946H149.755V76.3168H135.918C132.827 76.3168 131.66 75.5032 131.66 73.558V54.5308H126.389V73.5923L126.39 73.5939ZM96.8703 73.7853V60.6739C96.8703 57.3428 99.1047 55.3223 103.523 54.6845C103.995 54.6141 104.47 54.5786 104.946 54.5782H114.952C115.444 54.5785 115.937 54.6141 116.425 54.6845C120.844 55.3223 123.078 57.3419 123.078 60.6739V73.7853C123.078 76.4877 122.129 77.9341 119.941 78.8769L125.134 83.7829H119.013L114.812 79.8139L110.584 80.0944H104.946C103.981 80.0944 102.966 79.9521 101.848 79.6332C98.4883 78.6766 96.8711 76.8335 96.8711 73.7853H96.8703ZM102.56 73.4582C102.56 73.6356 102.611 73.8123 102.662 74.0257C102.974 75.5498 104.337 76.4002 106.412 76.4002H111.201L106.802 72.244H112.923L116.751 75.8687C117.458 75.4746 117.923 74.8711 118.079 74.0968C118.13 73.9202 118.13 73.7428 118.13 73.5653V60.9937C118.13 60.8522 118.13 60.6666 118.079 60.4973C117.766 59.0803 116.402 58.2651 114.371 58.2651H106.421C104.077 58.2651 102.562 59.3281 102.562 60.9937V73.468L102.56 73.4582Z" fill="#4F4F4F"/>
<path d="M154.394 48.4295C151.154 48.3379 148.678 48.6527 146.563 49.5865C145.961 49.8523 145.002 49.8588 144.904 50.6479C145.234 51.0101 145.287 51.5514 145.549 51.997C146.054 52.8531 146.908 54.0003 147.668 54.6005C148.499 55.257 149.356 55.9602 150.249 56.5302C151.834 57.5424 153.605 58.1205 155.131 59.1336C156.031 59.7305 156.925 60.4828 157.803 61.1582C158.237 61.4918 158.53 62.0102 159.092 62.2187V62.1222C158.795 61.7273 158.72 61.1843 158.448 60.773L157.25 59.5196C156.078 57.8842 154.592 56.4639 153.012 55.2759C151.752 54.329 148.931 53.0502 148.405 51.5146L148.313 51.4181C149.206 51.3118 150.252 50.9741 151.078 50.7435C152.463 50.3551 153.702 50.4549 155.133 50.0689L157.068 49.49V49.1041C156.345 48.3273 155.829 47.2995 155.041 46.5971C152.978 44.7574 150.726 42.9217 148.408 41.3886C147.122 40.5382 145.533 39.9871 144.17 39.2667C143.711 39.0247 142.906 38.8988 142.603 38.4948C141.888 37.5398 141.498 36.328 140.945 35.2242C139.789 32.8938 138.653 30.3476 137.628 27.8954C136.929 26.2233 136.472 24.574 135.602 23.0736C131.418 15.8748 126.914 11.5297 119.939 7.25987C118.455 6.35226 116.668 5.99248 114.779 5.52396L111.738 5.33099C111.12 5.06116 110.476 4.26802 109.895 3.88371C107.584 2.35467 101.656 -0.967517 99.9446 3.39311C98.8641 6.15111 101.559 8.84206 102.524 10.2403C103.201 11.2215 104.068 12.3196 104.551 13.4226C104.869 14.1471 104.924 14.874 105.196 15.641C105.866 17.5216 106.449 19.5846 107.315 21.3303C107.752 22.2134 108.235 23.1439 108.789 23.9338C109.129 24.4187 109.711 24.6321 109.802 25.3811C109.234 26.2151 109.201 27.507 108.881 28.5634C107.441 33.3157 107.984 39.2217 110.078 42.7394C110.721 43.8187 112.234 46.1343 114.316 45.2463C116.137 44.4695 115.723 42.0656 116.252 39.9429C116.369 39.4605 116.297 39.1089 116.528 38.7859V38.8824L118.187 42.3534C119.413 44.4221 121.593 46.5849 123.438 48.0444C124.395 48.8007 125.157 50.109 126.387 50.5514V50.4549H126.295C126.055 50.0624 125.68 49.9013 125.373 49.5882C124.652 48.8482 123.849 47.9283 123.253 47.0812C121.574 44.6952 120.091 42.0852 118.739 39.3665C118.094 38.0688 117.532 36.6371 116.989 35.3166C116.78 34.8071 116.782 34.0377 116.345 33.7736C115.749 34.7417 114.87 35.5234 114.409 36.6665C113.672 38.4932 113.577 40.7205 113.304 43.0313C113.142 43.0918 113.214 43.0501 113.12 43.1277C111.837 42.8039 111.385 41.4213 110.909 40.2348C109.702 37.234 109.479 32.4048 110.54 28.9526C110.813 28.0597 112.056 25.2453 111.553 24.4203C111.313 23.5969 110.522 23.112 110.079 22.4906C109.532 21.7138 108.984 20.6885 108.605 19.7907C107.617 17.4521 107.156 14.8274 106.117 12.4619C105.62 11.3319 104.781 10.1888 104.091 9.1912C103.327 8.07917 102.471 7.25823 101.88 5.92053C101.669 5.44219 101.383 4.67767 101.695 4.18462C101.725 4.04295 101.793 3.91318 101.891 3.8106C101.989 3.70803 102.113 3.63693 102.249 3.60571C102.783 3.1748 104.272 3.7488 104.828 3.99165C106.305 4.63433 107.539 5.24595 108.791 6.1135C109.392 6.52233 109.999 7.33673 110.725 7.56077H111.553C112.85 7.87312 114.303 7.65889 115.514 8.0432C117.656 8.72432 119.575 9.78483 121.319 10.9361C126.63 14.4455 130.971 19.4415 133.941 25.4089C134.42 26.368 134.626 27.2846 135.047 28.3018C135.896 30.3459 136.966 32.4662 137.811 34.4727C138.655 36.476 139.475 38.4957 140.667 40.1621C141.294 41.037 143.714 41.5079 144.813 41.9936C145.584 42.3346 146.847 42.6903 147.577 43.1506C148.972 44.0313 150.324 45.0803 151.632 46.0452C152.286 46.5276 154.296 47.5849 154.396 48.4557L154.394 48.4295Z" fill="#4F4F4F"/>
<path fill-rule="evenodd" clip-rule="evenodd" d="M113.211 11.6901C112.536 11.677 112.058 11.767 111.553 11.8831V11.9796H111.645C111.967 12.673 112.536 13.1186 112.934 13.7155L113.856 15.74L113.948 15.6435C114.518 15.2224 114.78 14.5495 114.776 13.5217C114.547 13.2698 114.514 12.9542 114.315 12.6533C114.052 12.2527 113.534 12.0254 113.21 11.6885L113.211 11.6901Z" fill="#4F4F4F"/>
<path fill-rule="evenodd" clip-rule="evenodd" d="M152.23 76.2124C152.23 78.6409 154.064 80.2779 156.115 80.2779C158.166 80.2779 159.999 78.6409 159.999 76.2124C159.999 73.7839 158.166 72.147 156.115 72.147C154.064 72.147 152.23 73.7839 152.23 76.2124ZM159.129 76.2124C159.129 78.0554 157.783 79.4324 156.113 79.4324C154.426 79.4324 153.098 78.0554 153.098 76.2124C153.098 74.3694 154.424 72.9924 156.113 72.9924C157.781 72.9924 159.129 74.3694 159.129 76.2124ZM157.16 78.533H158.03L156.756 76.4953C157.44 76.4193 157.957 76.0718 157.957 75.2263C157.957 74.2827 157.387 73.8935 156.29 73.8935H154.559V78.5338H155.305V76.528H155.999L157.159 78.5338L157.16 78.533ZM155.305 75.8755V74.5427H156.165C156.61 74.5427 157.149 74.6294 157.149 75.1723C157.149 75.8224 156.663 75.8772 156.102 75.8772H155.305V75.8755Z" fill="#4F4F4F"/>
</g>
<defs>
<clipPath id="clip0_766_128">
<rect width="160" height="87" fill="white" transform="translate(0 0.96582)"/>
</clipPath>
</defs>
</svg>
