<svg width="84" height="95" viewBox="0 0 84 95" fill="none" xmlns="http://www.w3.org/2000/svg">
<g clip-path="url(#clip0_766_86)">
<path d="M12.5886 79.4033C12.5886 75.6609 11.4976 73.7396 9.3146 73.6349C8.44833 73.594 7.58298 73.733 6.7731 74.0432C6.11435 74.2748 5.67175 74.5013 5.43845 74.732V83.6637C6.83486 84.5214 8.07516 84.9186 9.15592 84.8645C11.4435 84.717 12.5886 82.8917 12.5886 79.4118V79.4033ZM15.2819 79.5576C15.2819 81.4584 14.8256 83.0367 13.9096 84.2924C12.8871 85.7129 11.4701 86.4437 9.65942 86.484C8.29389 86.5269 6.88718 86.1083 5.43931 85.2316V93.3494L3.09766 92.5328V74.5141C3.48193 74.0535 3.97685 73.6564 4.57555 73.3133C5.96939 72.519 7.66344 72.1107 9.65599 72.0909L9.6903 72.1236C11.5122 72.1013 12.9154 72.8321 13.8933 74.3151C14.8128 75.6755 15.2657 77.4185 15.2657 79.55L15.2819 79.5576ZM29.5917 84.8868C29.5917 87.4369 29.3301 89.2013 28.8078 90.1843C28.2854 91.1673 27.2835 91.9513 25.8074 92.5345C24.6108 92.9951 23.3173 93.2465 21.9286 93.2893L21.5426 91.8466C22.9545 91.6579 23.9486 91.4709 24.525 91.283C25.6598 90.9073 26.4378 90.3395 26.8667 89.5675C27.2098 88.9388 27.3788 87.7389 27.3788 85.9633V85.3672C25.7773 86.0791 24.0996 86.4308 22.3438 86.4308C21.2346 86.4472 20.1554 86.0701 19.2979 85.3663C18.3141 84.5927 17.8226 83.6105 17.8226 82.4208V72.8844L20.1642 72.1004V81.69C20.1642 82.7142 20.5022 83.5033 21.179 84.0574C21.8557 84.6115 22.7229 84.8766 23.8054 84.8568C24.8879 84.8371 26.0295 84.4279 27.2509 83.6345V72.4469H29.5926V84.8886L29.5917 84.8868ZM38.7353 86.3596L37.9633 86.3922C36.639 86.3922 35.6063 86.0834 34.8686 85.4658C34.1309 84.8482 33.7647 83.9931 33.7647 82.9037V73.8862H32.1607V72.4452H33.7647V68.6196L36.1038 67.8048V72.4435H38.7353V73.8845H36.1106V82.8394C36.1106 83.6988 36.3465 84.2976 36.8174 84.663C37.2223 84.9563 37.8656 85.1236 38.7413 85.1665V86.3673L38.7353 86.3596ZM52.9122 86.1709H50.5705V77.3361C50.5705 76.4372 50.3561 75.6635 49.9272 75.0167C49.7089 74.67 49.4038 74.3863 49.0421 74.1939C48.6804 74.0015 48.2747 73.9069 47.8652 73.9197C46.7913 73.9197 45.4489 74.473 43.8381 75.5803V86.1735H41.4964V65.0506L43.8381 64.3301V73.9394C45.334 72.8758 46.9688 72.3415 48.7444 72.3415C49.9847 72.3415 50.9891 72.7497 51.7576 73.5637C52.5262 74.3777 52.913 75.3924 52.913 76.6044V86.1623L52.9122 86.1709ZM65.3598 79.0516C65.3598 77.614 65.0802 76.4269 64.5243 75.4876C63.8639 74.3426 62.8363 73.7396 61.4476 73.6864C58.8804 73.8322 57.5997 75.63 57.5997 79.0765C57.5997 80.6573 57.8571 81.9774 58.4043 83.0367C59.0905 84.3868 60.1198 85.0524 61.4939 85.0301C64.0714 85.0103 65.3598 83.0212 65.3598 79.0601V79.0516ZM67.933 79.0671C67.933 81.1136 67.3978 82.8171 66.329 84.1766C65.1539 85.6991 63.5285 86.4634 61.457 86.4634C59.4027 86.4634 57.8013 85.6914 56.6537 84.1766C55.6055 82.8162 55.084 81.1145 55.084 79.0671C55.084 77.1431 55.6501 75.5245 56.7823 74.2079C57.9789 72.8098 59.5528 72.109 61.4965 72.109C63.4401 72.109 65.0244 72.8106 66.2441 74.2079C67.3763 75.5254 67.9425 77.1431 67.9425 79.0671H67.933ZM81.3482 86.1795H78.998V76.842C78.998 75.8179 78.6832 75.0185 78.0527 74.4421C77.4223 73.8657 76.5825 73.5903 75.5344 73.6126C74.4227 73.6324 73.3643 73.9883 72.3607 74.6762V86.17H70.0191V74.3846C71.3657 73.4256 72.6069 72.7994 73.7391 72.4975C74.8079 72.2248 75.7505 72.0893 76.5628 72.0893C77.1186 72.0893 77.641 72.1407 78.1325 72.2471C79.052 72.4546 79.7999 72.8407 80.3772 73.4068C81.0205 74.0329 81.3405 74.7843 81.3405 75.6626V86.1615L81.3482 86.1795Z" fill="#4F4F4F"/>
<path d="M24.5567 10.0331C24.5567 6.10415 25.6343 3.9668 31.584 2.94902C35.6234 2.25685 40.8025 2.17033 45.6336 2.94902C49.4494 3.56476 52.661 6.34353 52.661 10.0331V22.9954C52.661 26.7971 49.5429 29.9113 45.6336 29.9113H31.584C26.8158 29.9113 22.797 33.8861 22.797 38.3797V44.5988H17.9663C13.88 44.5988 11.5009 41.7183 10.5015 37.6875C9.15334 32.2725 9.21057 29.0461 10.5015 23.86C11.6207 19.3358 15.1969 16.9487 19.2834 16.9487H38.6113V15.2183H24.5564V10.0328L24.5567 10.0331Z" fill="#4F4F4F"/>
<path d="M52.6609 51.515C52.6609 55.4439 49.1732 57.4339 45.6336 58.4263C40.3084 59.9225 36.0345 59.6935 31.584 58.4263C27.8671 57.3678 24.5566 55.2048 24.5566 51.515V38.5527C24.5566 34.8222 27.7373 31.6368 31.584 31.6368H45.6336C50.3134 31.6368 54.4205 27.6827 54.4205 22.9953V16.9492H59.6885C63.7801 16.9492 65.7064 19.9212 66.7158 23.8605C68.1212 29.3315 68.1837 33.4231 66.7158 37.688C65.2949 41.8307 63.7748 44.5993 59.6885 44.5993H38.6113V46.3298H52.6609V51.5153V51.515Z" fill="#4F4F4F"/>
<path d="M28.0703 9.17327C28.0703 7.73817 29.2467 6.57764 30.7046 6.57764C32.1568 6.57764 33.3389 7.73788 33.3389 9.17327C33.3389 10.6038 32.1571 11.7637 30.7046 11.7637C29.2473 11.7637 28.0703 10.6035 28.0703 9.17327ZM43.879 52.3755C43.879 50.9451 45.0607 49.7851 46.5133 49.7851C47.9705 49.7851 49.1476 50.9454 49.1476 52.3755C49.1476 53.8106 47.9711 54.9712 46.5133 54.9712C45.061 54.9712 43.879 53.8109 43.879 52.3755Z" fill="#4F4F4F"/>
</g>
<defs>
<clipPath id="clip0_766_86">
<rect width="84" height="94" fill="white" transform="translate(0 0.96582)"/>
</clipPath>
</defs>
</svg>
